<svg xmlns="http://www.w3.org/2000/svg" width="165" height="28" viewBox="0 0 165 28">
    <g fill="none" fill-rule="evenodd">
        <path d="M0 0H185V48H0z" transform="translate(-10 -10)"/>
        <g fill-rule="nonzero" transform="translate(-10 -10) translate(10 10)">
            <path fill="#444" d="M41.997 20.021L43.285 20.359 43.99 20.782 44.648 21.692 44.956 22.568 45.05 23.617 44.827 24.774 44.383 25.694 43.53 26.564 42.122 26.982 41.818 26.716 42.54 25.194 43.019 23.502 42.963 22.471 42.274 20.782 41.818 20.03z"/>
            <path fill="#757575" d="M38.773 20.523s1.177-.502 1.26-.502c.082 0 1.717.502 1.717.502l.83.928.468 1.26-.057 1.736-.49 1.12-1.41 1.153h-1.855l-1.153-1.064-.672-1.927.224-1.612 1.138-1.594zM73.342 17.853L74.316 19.334 74.78 21.379 74.78 22.938 74.44 24.531 73.854 26.166 72.625 27.482 71.49 27.482 70.672 26.779 69.996 25.423 69.538 24.023 69.539 23.369 70.757 19.565 72.657 17.472z"/>
            <path fill="#444" d="M54.709 16.521L57.834 16.57 59.242 17.541 60.152 20.143 60.38 21.847 60.07 24.199 59.336 26.225 58.069 27.482 56.42 27.478 54.709 27.401 55.09 26.335 56.146 23.153 56.11 20.425 55.252 17.685zM73.342 17.321L76.506 17.367 77.933 18.276 78.853 20.714 79.084 22.31 78.772 24.515 78.027 26.414 76.745 27.591 75.076 27.587 73.342 27.516 73.728 26.517 74.799 23.534 74.759 20.979 73.892 18.41z"/>
            <path fill="#757575" d="M52.162 17.13L53.02 16.51 54.025 16.521 55.052 17.587 56.04 20.44 56.071 23.712 55.105 26.44 54.1 27.591 52.162 27.059 50.906 24.625 50.678 21.847 51.143 18.767z"/>
            <path fill="#A8A8A8" d="M53.188 10.055s1.902-.457 3.27-.305c0 0 .571-.38 1.978-.495l-1.337-.037s-.646-.114-.722-.532c-.075-.419-.19-.915-.19-.915s-.19-.266.76-.42c.95-.154 2.51-.495 3.802-.267 0 0 .8.115.84.456.04.342 0 .686-.076.762-.075.076-.684.42-.684.42h1.029l-.304.722-.465.216-1.89.66-1.79.88-2.167 1.028-2.13.494-.115-1.75.19-.917z"/>
            <path fill="#FFF" d="M70.954 10.396l1.56-3.5.839.076.646.57h.343s2.32-1.064 4.487-1.026c0 0 .343.075.494-.115.151-.19 1.26-2.853 1.26-2.853s.075-.19-.228-.266c-.278-.057-.558-.094-.84-.114 0 0-2.053.84-3.688 2.054l-4.07-.685-.582-.337-4.298-.685-.494.153-4.373-.494.875-2.74s.114-.266-.457-.342c-.57-.075-.646-.152-.912 0-.266.153-3.042 2.358-4.758 4.375 0 0-.151.19.077.457.228.267.42.42.797.42l.727-.501 4.867.609s-.42 2.052-2.107 4.165c-1.688 2.112.319.589.319.589h.912s1.14-2.24 1.787-4.032l.228-.532.038-.19.38-.229 3.841.647.42.42 2.358.342-.04.267s-.408 1.025-1.632 3.041c0 0 .76.038 1.224.456z"/>
            <path fill="#444" d="M72.088 11.767s-.228-1.26-1.065-1.561c-.837-.301-2.32-.456-2.32-.456l-3.767-.457-1.26.268c-.546.168-1.042.469-1.445.875-.609.645-1.94 1.331-1.94 1.331l-2.772.228-2.923 2.285-.724 1.82 1.902.305 2.396.19.98.807.612 1.476.647 2.66-.213 1.908 9.122.03c.23 0 .449-.091.61-.253.163-.162.254-.381.254-.61V16.14l1.906-4.374z"/>
            <path fill="#757575" d="M66.574 23.635L64.33 23.464 63.037 21.353 62.999 18.043 64.025 19.26 65.737 20.135 66.802 21.048z"/>
            <path fill="#CECECE" d="M72.074 11.722c-.05-.224-.312-1.244-1.055-1.516-.84-.304-2.32-.456-2.32-.456l-3.763-.457-1.26.268c-.41.127-.795.327-1.134.592l-.265.32-.531 1.104c-.121.345-.3.667-.532.95-.343.381-.533.76-.23 1.294 0 0 .268.266.875.152 0 0 .686-.457.952-1.712.265-1.254.988-1.26.988-1.26.127.14.305.222.494.228.305 0 .646-.168.951-.008.305.16 1.94.314 1.94.314l3.499.228 1.39-.04z"/>
            <path fill="#FFF" d="M76.12 16.862l-4.018-.035c-.042 0-.084.008-.123.023-1.646.13-2.916 2.52-2.916 5.532 0 3.011 1.27 5.4 2.916 5.53.039.016.08.024.123.024h4.018c1.715 0 3.058-2.432 3.058-5.537 0-3.106-1.347-5.533-3.058-5.537zm-6.378 5.518c0-2.63 1.086-4.852 2.38-4.852 1.293 0 2.379 2.222 2.379 4.852 0 2.631-1.088 4.851-2.38 4.851-1.291 0-2.379-2.221-2.379-4.85zm6.372 4.87h-2.519c.949-.93 1.58-2.742 1.58-4.87s-.626-3.92-1.567-4.856l2.505.022c1.287 0 2.379 2.222 2.379 4.851 0 2.63-1.09 4.853-2.378 4.853z"/>
            <path fill="#757575" d="M53.774 12.299l-.567-2.219c-1.744.804-3.357 1.866-4.785 3.151-2.358 2.13-2.737 3.27-2.737 3.27l.113.8 2.093-.684 3.27-2.55 2.613-1.768z"/>
            <path fill="#444" d="M44.255 18.084s.586-1.315 1.423-1.54l.609.456s1.96-2.363 4.02-3.22c2.06-.857 4.116-1.96 6.475-2.336 2.358-.377-4.221 4.107-4.221 4.107l-.47 1.465-1.43 4.28.113 3.344-.266-.076s-3.195-2.587-4.412-3.234l-1.592-.225-1.68-1.065-1.783-.02s-.536-1.046-2.55-.78l.152-.266.874-.647 2.7-.228 2.038-.015z"/>
            <path fill="#FFF" d="M46.463 16.787s2.281-2.396 4.106-3.119c.407-.376.853-.708 1.331-.988l-.119-1.332s-2.015 1.18-3.195 2.512c-1.18 1.333-2.319 2.738-2.319 2.738l.196.19zM45.392 23.444c0-2.076-1.433-3.766-3.193-3.766h-2.092c-.028 0-.055.004-.082.012-1.652.14-2.96 1.77-2.96 3.754s1.331 3.64 3.005 3.76h2.126c1.763.006 3.196-1.682 3.196-3.76zm-7.644 0c0-1.698 1.12-3.08 2.511-3.08s2.51 1.384 2.51 3.08c0 1.645-1.056 2.994-2.38 3.08h-.267c-1.321-.09-2.374-1.436-2.374-3.08zm4.45 3.08h-.104c.821-.681 1.359-1.808 1.359-3.08 0-1.27-.538-2.398-1.36-3.08h.106c1.383 0 2.51 1.384 2.51 3.08 0 1.697-1.127 3.082-2.51 3.082v-.002z"/>
            <path fill="#CECECE" d="M72.599 12.383c.014-.102.08-.19.175-.231.436-.206 1.752-.806 2.63-.994.934-.2 2.098.89 2.378 1.158.038.039.065.087.079.14l.28 1.074c.02.077.007.16-.034.228-.041.069-.108.118-.186.137l-.27.063c-.052.014-.106.014-.157 0l-.543-.172c-.067-.02-.14-.017-.204.01-.494.207-2.641 1.212-3.815 3.458-1.223 2.317-.473-3.789-.333-4.871z"/>
            <path fill="#FFF" d="M46.267 20.287s-1.977-1.216-3.689-.875l-.609-.075s-.855-1.008-1.843-.933c-.7.054-1.32.544-1.626.828-.025.023-.064.024-.091.003-.027-.022-.034-.06-.017-.09.14-.25.475-.64 1.316-1.082 1.444-.762 2.7-.914 4.144-.19 1.444.723 2.205 1.482 2.659 2.167.453.684-.244.247-.244.247z"/>
            <path fill="#CECECE" d="M61.888 11.23l-.086-1.15s.341-1.445-4.298.8c-4.64 2.244-5.59 3.5-5.59 3.5s-2.7 2.547-1.406 2.091c1.293-.456 1.749.153 1.749.153l1.692-.4s2.898-3.57 7.39-4.303c.335-.053.574-.353.55-.692z"/>
            <path fill="#FFF" d="M57.529 15.99l-4.106-.04c-.045 0-.09.01-.13.027-1.68.14-2.969 2.712-2.969 5.965 0 3.254 1.292 5.821 2.969 5.966.04.017.085.026.13.026h4.096c1.748 0 3.118-2.623 3.118-5.972s-1.363-5.968-3.108-5.973zM51.78 25.77c-.502-1.016-.778-2.38-.778-3.829 0-1.449.28-2.812.778-3.829.456-.927 1.06-1.459 1.656-1.459.596 0 1.2.532 1.655 1.46.501 1.016.778 2.38.778 3.828 0 1.45-.28 2.813-.778 3.83-.456.926-1.06 1.458-1.655 1.458s-1.201-.532-1.656-1.459zm5.738 1.479h-2.631c.998-.98 1.665-2.97 1.665-5.308 0-2.338-.662-4.303-1.651-5.293l2.618.025c.595 0 1.2.53 1.656 1.457.501 1.018.778 2.38.778 3.83 0 1.451-.28 2.812-.778 3.83-.453.927-1.058 1.459-1.657 1.459z"/>
            <rect width="1.902" height="10.499" x="69.996" y="11.348" fill="#A5A5A5" rx=".951"/>
            <path fill="#A5A5A5" d="M62.125 10.625c0-.474-.238-.878-.571-1.035v2.07c.333-.156.57-.56.57-1.035zM60.375 10.625c0 .61.392 1.103.875 1.103V9.52c-.483 0-.875.496-.875 1.105zM61.554 9.52h-.304c.105 0 .209.024.304.069V9.52zM61.554 11.728v-.069c-.095.045-.199.069-.304.069h.304z"/>
            <path fill="#A5A5A5" d="M61.25 9.52v2.208c.105 0 .209-.024.304-.069V9.59c-.095-.045-.199-.069-.304-.07z"/>
            <ellipse cx="61.554" cy="10.625" fill="#FFF" rx="1" ry="1.103"/>
            <path fill="#A5A5A5" d="M77.297 12.223c.014-.408-.215-.786-.582-.963v1.927c.367-.178.595-.556.582-.964zM75.51 12.223c0 .56.4 1.027.894 1.027V11.2c-.494 0-.894.455-.894 1.023z"/>
            <path fill="#A5A5A5" d="M76.715 11.2h-.311c.107 0 .212.022.31.064V11.2zM76.715 13.25v-.063c-.099.041-.204.063-.311.063h.31z"/>
            <path fill="#A5A5A5" d="M76.404 11.2v2.05c.107 0 .212-.022.31-.063V11.26c-.098-.041-.204-.061-.31-.06z"/>
            <ellipse cx="76.737" cy="12.223" fill="#FFF" rx="1" ry="1.028"/>
            <path fill="#A5A5A5" d="M78.485 12.698c.013-.24-.108-.466-.314-.588v1.177c.206-.123.327-.35.314-.589zM77.532 12.698c0 .347.215.629.48.629v-1.26c-.272.004-.48.285-.48.631z"/>
            <path fill="#A5A5A5" d="M78.171 12.07h-.166c.058.001.115.014.166.04v-.04zM78.171 13.327v-.04c-.051.026-.108.04-.166.04h.166z"/>
            <path fill="#A5A5A5" d="M78.005 12.07v1.26c.058 0 .115-.013.166-.038V12.11c-.051-.026-.108-.039-.166-.04z"/>
            <circle cx="78.184" cy="12.698" r="1" fill="#FFF"/>
            <path fill="#A5A5A5" d="M60.024 10.872c.01-.31-.164-.596-.443-.73v1.461c.28-.134.454-.42.443-.73zM58.664 10.872c0 .432.305.78.68.78v-1.56c-.375 0-.68.35-.68.78z"/>
            <path fill="#A5A5A5" d="M59.58 10.093h-.242c.082 0 .162.016.237.049l.006-.05zM59.58 11.652v-.049c-.074.033-.155.05-.236.05h.237z"/>
            <path fill="#A5A5A5" d="M59.338 10.093v1.56c.082 0 .162-.017.237-.05v-1.461c-.075-.033-.155-.05-.237-.05z"/>
            <circle cx="59.581" cy="10.872" r="1" fill="#FFF"/>
            <rect width="2.053" height="10.842" x="64.33" y="10.892" fill="#A5A5A5" rx="1.027"/>
            <path fill="#A5A5A5" d="M65.318 10.892L66.346 10.892 66.383 21.732 65.318 21.734zM73.532 14.468L72.582 14.581 72.695 17.587 73.532 17.7zM72.033 21.847L70.946 21.847 70.946 11.348 72.011 11.348z"/>
            <rect width="1.902" height="10.499" x="71.061" y="11.348" fill="#FFF" rx=".951"/>
            <path fill="#A5A5A5" d="M62.697 16.674c.487.27 1.028.426 1.583.456v-3.344c-.606.048-1.178.304-1.618.724-.164.163-.367.28-.59.34-.66.174-1.284.464-1.842.858-.13.096-.184.266-.132.42.053.153.198.255.36.252.7-.025 1.59.01 2.24.294z"/>
            <rect width="1.406" height="3.347" x="63.646" y="13.783" fill="#FFF" rx=".703"/>
            <rect width="1.406" height="3.234" x="72.848" y="14.468" fill="#FFF" rx=".703"/>
            <path fill="#FFF" d="M62.657 18.2c.072.824.645 1.518 1.44 1.746h.57c.203-.12.332-.335.342-.571 0 0 0-.647-.266-.647s-.874.075-.99-1.028c-.086-.84-1.887-.58-2.763-.407-.064.01-.113.063-.118.127-.005.065.035.125.097.144l1.688.636z"/>
            <path fill="#444" d="M67.372 17.191L69.996 17.282 70.946 20.87 70.946 22.912 70.186 23.712 66.556 23.632 66.574 21.809z"/>
            <path fill="#CECECE" d="M69.996 17.282L69.996 13.216 67.372 13.028 67.296 17.206z"/>
            <path fill="#A8A8A8" d="M67.411 17.853L69.692 17.853 70.529 20.859 70.529 22.228 67.79 22.151 67.752 20.821z"/>
            <rect width="2.053" height="10.842" x="65.318" y="10.892" fill="#FFF" rx="1.027"/>
            <path fill="#FFF" d="M147.992 8.498H152.833V11.795H147.992zM162.513 6.02c-.03-.032-.057-.066-.088-.097-1.658-1.66-3.651-2.49-5.98-2.489h-8.453V6.02h14.521zM147.992 20.04v3.297h4.84v-2.985h3.613c.787.002 1.571-.103 2.33-.312h-10.783zM147.992 25.809H152.833V27.608H147.992zM159.167 14.269c-.056.063-.1.13-.16.192-.67.692-1.598 1.077-2.562 1.064h-3.612v-1.26h-4.841v3.297h14.711c.881-.934 1.527-2.064 1.886-3.297l-5.422.004zM157.711 8.498c.489.182.93.469 1.296.84.663.647 1.043 1.53 1.056 2.457h4.845c-.004-1.136-.242-2.259-.7-3.298l-6.497.001zM127.268 15.525c.001-.423.037-.844.107-1.26h-4.887c-.04.411-.06.828-.06 1.26.001.683.058 1.366.167 2.04h4.949c-.186-.664-.279-1.35-.276-2.04zM124.695 8.498c-.743.999-1.317 2.113-1.698 3.298h5.301c.309-.504.675-.971 1.092-1.391.897-.927 2.033-1.587 3.282-1.907h-7.977zM140.173 20.04c-.17.205-.35.408-.547.604-1.358 1.359-3.199 2.122-5.119 2.122s-3.761-.763-5.118-2.122c-.196-.196-.374-.399-.543-.604h-5.575c.492 1.204 1.18 2.318 2.037 3.297H143.7c.858-.979 1.547-2.093 2.04-3.297h-5.568zM141.768 15.525c.003.69-.09 1.377-.28 2.04h4.935c.112-.674.169-1.357.17-2.04 0-.42-.02-.84-.06-1.26h-4.872c.07.416.106.837.107 1.26zM136.343 8.498c1.248.324 2.383.983 3.283 1.907.419.42.788.887 1.1 1.391h5.293c-.384-1.185-.959-2.299-1.702-3.298h-7.974zM128.154 25.809c3.892 2.4 8.804 2.4 12.696 0h-12.696zM141.946 6.02c-2.137-1.718-4.618-2.586-7.44-2.586-2.82 0-5.318.868-7.448 2.586h14.888zM103.306 8.498H108.14699999999999V11.795H103.306zM114.478 14.269c-.054.063-.098.13-.158.192-.671.693-1.599 1.078-2.564 1.064h-3.609v-1.26h-4.84v3.297h14.71c.24-.26.465-.533.674-.82.54-.75.947-1.589 1.205-2.477l-5.418.004zM108.147 20.04L103.306 20.04 103.306 20.352 103.306 23.337 108.147 23.337zM117.829 6.02c-.032-.032-.058-.066-.09-.097-1.658-1.66-3.651-2.49-5.98-2.489h-8.453V6.02h14.523zM103.306 25.809H108.14699999999999V27.608H103.306zM113.066 25.809L114.323 27.609 120.227 27.609 118.971 25.809zM113.027 8.498c.488.182.93.469 1.296.84.662.647 1.041 1.53 1.054 2.457h4.846c-.004-1.136-.242-2.259-.7-3.298l-6.496.001zM114.94 20.04L109.039 20.04 111.341 23.337 117.244 23.337zM95.252 20.04c-.172.21-.354.412-.546.604-1.338 1.381-3.187 2.149-5.11 2.121V20.04h-4.841v3.297H98.79c.858-.979 1.547-2.093 2.04-3.297h-5.578zM96.835 15.525c.002.69-.092 1.377-.28 2.04h4.95c.112-.674.169-1.357.17-2.04 0-.42-.02-.84-.06-1.26H96.73c.07.416.105.837.106 1.26zM84.755 14.269H89.59599999999999V17.566H84.755zM84.755 25.809v1.8h4.842c2.244.027 4.447-.598 6.342-1.8H84.755zM97.035 6.02c-2.136-1.718-4.618-2.586-7.438-2.586h-4.842V6.02h12.28zM91.43 8.498c1.246.323 2.38.983 3.276 1.907.42.42.787.886 1.098 1.391h5.304c-.384-1.185-.959-2.299-1.702-3.298H91.43zM84.755 8.498H89.59599999999999V11.795H84.755zM19.121 3.44H23.962V6.026H19.121zM19.121 20.04L19.121 23.337 33.614 23.337 33.614 22.767 23.962 22.767 23.962 20.04zM19.121 8.498H23.962V11.795H19.121zM19.121 14.269H23.962V17.566H19.121zM19.121 25.809H33.614V27.608H19.121zM11.175 14.269c-.055.063-.098.13-.158.192-.672.693-1.6 1.078-2.564 1.064H4.84v-1.26H0v3.297h14.71c.24-.26.466-.533.675-.82.54-.75.947-1.589 1.205-2.477l-5.415.004zM0 8.498H4.841V11.795H0zM4.841 20.04L0 20.04 0 20.352 0 23.337 4.841 23.337zM14.523 6.02c-.033-.032-.058-.066-.09-.097-1.658-1.656-3.651-2.484-5.98-2.483H0v2.58h14.523zM0 25.809H4.841V27.608H0zM11.634 20.04L5.732 20.04 8.033 23.337 13.938 23.337zM9.76 25.809L11.017 27.609 16.921 27.609 15.665 25.809zM9.72 8.498c.489.182.931.469 1.297.84.662.647 1.041 1.53 1.054 2.457h4.846c-.004-1.136-.242-2.259-.7-3.298l-6.496.001z"/>
        </g>
    </g>
</svg>
